{
  "accessors": [
    {
      "bufferView": 1,
      "componentType": 5126,
      "count": 3366,
      "max": [
        2.545097827911377,
        -0.18313226103782654,
        2.591073989868164
      ],
      "min": [
        -2.564476490020752,
        -1.1534900665283203,
        -2.590411901473999
      ],
      "type": "VEC3"
    },
    {
      "bufferView": 1,
      "byteOffset": 40392,
      "componentType": 5126,
      "count": 3366,
      "max": [
        1.0,
        1.0,
        1.0
      ],
      "min": [
        -1.0,
        -1.0,
        -1.0
      ],
      "type": "VEC3"
    },
    {
      "bufferView": 0,
      "componentType": 5125,
      "count": 4644,
      "type": "SCALAR"
    },
    {
      "bufferView": 1,
      "byteOffset": 80784,
      "componentType": 5126,
      "count": 288,
      "max": [
        2.382882833480835,
        -0.667989194393158,
        2.4123857021331787
      ],
      "min": [
        -2.4026691913604736,
        -1.5902820825576782,
        -2.381093978881836
      ],
      "type": "VEC3"
    },
    {
      "bufferView": 1,
      "byteOffset": 84240,
      "componentType": 5126,
      "count": 288,
      "max": [
        0.9998973608016968,
        0.9998575448989868,
        0.9999518394470215
      ],
      "min": [
        -0.9996126294136047,
        -0.9999668002128601,
        -0.9999945163726807
      ],
      "type": "VEC3"
    },
    {
      "bufferView": 0,
      "byteOffset": 18576,
      "componentType": 5125,
      "count": 432,
      "type": "SCALAR"
    },
    {
      "bufferView": 1,
      "byteOffset": 87696,
      "componentType": 5126,
      "count": 136,
      "max": [
        2.39888596534729,
        -0.7522467970848083,
        2.4281561374664307
      ],
      "min": [
        -2.4147067070007324,
        -1.543350100517273,
        -2.399155855178833
      ],
      "type": "VEC3"
    },
    {
      "bufferView": 1,
      "byteOffset": 89328,
      "componentType": 5126,
      "count": 136,
      "max": [
        0.9996092319488525,
        0.8359084725379944,
        0.9996246099472046
      ],
      "min": [
        -0.9996136426925659,
        -0.8550583124160767,
        -0.9999517202377319
      ],
      "type": "VEC3"
    },
    {
      "bufferView": 0,
      "byteOffset": 20304,
      "componentType": 5125,
      "count": 576,
      "type": "SCALAR"
    },
    {
      "bufferView": 1,
      "byteOffset": 90960,
      "componentType": 5126,
      "count": 194,
      "max": [
        2.446413278579712,
        -0.5406847596168518,
        2.446237802505493
      ],
      "min": [
        -2.4459869861602783,
        -1.9396531581878662,
        -2.4461770057678223
      ],
      "type": "VEC3"
    },
    {
      "bufferView": 1,
      "byteOffset": 93288,
      "componentType": 5126,
      "count": 194,
      "max": [
        1.0,
        0.9999791979789734,
        1.0
      ],
      "min": [
        -1.0,
        -0.9999996423721313,
        -1.0
      ],
      "type": "VEC3"
    },
    {
      "bufferView": 0,
      "byteOffset": 22608,
      "componentType": 5125,
      "count": 360,
      "type": "SCALAR"
    },
    {
      "bufferView": 1,
      "byteOffset": 95616,
      "componentType": 5126,
      "count": 288,
      "max": [
        2.083059787750244,
        -0.07546775788068771,
        2.1183714866638184
      ],
      "min": [
        -2.33449125289917,
        -0.4103448688983917,
        -2.137995719909668
      ],
      "type": "VEC3"
    },
    {
      "bufferView": 1,
      "byteOffset": 99072,
      "componentType": 5126,
      "count": 288,
      "max": [
        0.9941393733024597,
        0.9668178558349609,
        0.9964627623558044
      ],
      "min": [
        -0.9985734224319458,
        -0.9993018507957458,
        -0.9895873069763184
      ],
      "type": "VEC3"
    },
    {
      "bufferView": 0,
      "byteOffset": 24048,
      "componentType": 5125,
      "count": 432,
      "type": "SCALAR"
    }
  ],
  "asset": {
    "extras": {
      "author": "xenera (https://sketchfab.com/xenera)",
      "license": "CC-BY-NC-ND-4.0 (http://creativecommons.org/licenses/by-nc-nd/4.0/)",
      "source": "https://sketchfab.com/3d-models/farm-grass-tile-e8a7f238a70a457c9394142ef3bb5533",
      "title": "farm_grass-tile"
    },
    "generator": "Sketchfab-12.68.0",
    "version": "2.0"
  },
  "bufferViews": [
    {
      "buffer": 0,
      "byteLength": 25776,
      "name": "floatBufferViews",
      "target": 34963
    },
    {
      "buffer": 0,
      "byteLength": 102528,
      "byteOffset": 25776,
      "byteStride": 12,
      "name": "floatBufferViews",
      "target": 34962
    }
  ],
  "buffers": [
    {
      "byteLength": 128304,
      "uri": "scene.bin"
    }
  ],
  "materials": [
    {
      "doubleSided": true,
      "name": "grass",
      "pbrMetallicRoughness": {
        "baseColorFactor": [
          0.371238,
          0.672443,
          0.00604883,
          1.0
        ],
        "metallicFactor": 0.0,
        "roughnessFactor": 0.8
      }
    },
    {
      "doubleSided": true,
      "name": "plate",
      "pbrMetallicRoughness": {
        "baseColorFactor": [
          0.262007,
          0.303167,
          0.303167,
          1.0
        ],
        "metallicFactor": 0.0,
        "roughnessFactor": 0.0
      }
    },
    {
      "doubleSided": true,
      "name": "bolt",
      "pbrMetallicRoughness": {
        "baseColorFactor": [
          0.13286800000000001,
          0.291771,
          0.341914,
          1.0
        ],
        "metallicFactor": 0.0,
        "roughnessFactor": 0.0
      }
    },
    {
      "doubleSided": true,
      "name": "wood_1",
      "pbrMetallicRoughness": {
        "baseColorFactor": [
          0.393079,
          0.103473,
          0.00597389,
          1.0
        ],
        "metallicFactor": 0.0,
        "roughnessFactor": 0.8
      }
    },
    {
      "doubleSided": true,
      "name": "grass2",
      "pbrMetallicRoughness": {
        "baseColorFactor": [
          0.259777,
          0.46716,
          0.00488712,
          1.0
        ],
        "metallicFactor": 0.0,
        "roughnessFactor": 0.8
      }
    }
  ],
  "meshes": [
    {
      "name": "Object_0",
      "primitives": [
        {
          "attributes": {
            "NORMAL": 1,
            "POSITION": 0
          },
          "indices": 2,
          "material": 0,
          "mode": 4
        }
      ]
    },
    {
      "name": "Object_1",
      "primitives": [
        {
          "attributes": {
            "NORMAL": 4,
            "POSITION": 3
          },
          "indices": 5,
          "material": 1,
          "mode": 4
        }
      ]
    },
    {
      "name": "Object_2",
      "primitives": [
        {
          "attributes": {
            "NORMAL": 7,
            "POSITION": 6
          },
          "indices": 8,
          "material": 2,
          "mode": 4
        }
      ]
    },
    {
      "name": "Object_3",
      "primitives": [
        {
          "attributes": {
            "NORMAL": 10,
            "POSITION": 9
          },
          "indices": 11,
          "material": 3,
          "mode": 4
        }
      ]
    },
    {
      "name": "Object_4",
      "primitives": [
        {
          "attributes": {
            "NORMAL": 13,
            "POSITION": 12
          },
          "indices": 14,
          "material": 4,
          "mode": 4
        }
      ]
    }
  ],
  "nodes": [
    {
      "children": [
        1
      ],
      "matrix": [
        1.0,
        0.0,
        0.0,
        0.0,
        0.0,
        2.220446049250313e-16,
        -1.0,
        0.0,
        0.0,
        1.0,
        2.220446049250313e-16,
        0.0,
        0.0,
        0.0,
        0.0,
        1.0
      ],
      "name": "Sketchfab_model"
    },
    {
      "children": [
        2
      ],
      "name": "root"
    },
    {
      "children": [
        3
      ],
      "matrix": [
        1.0,
        0.0,
        0.0,
        0.0,
        0.0,
        2.220446049250313e-16,
        1.0,
        0.0,
        0.0,
        -1.0,
        2.220446049250313e-16,
        0.0,
        0.0,
        0.0,
        0.0,
        1.0
      ],
      "name": "GLTF_SceneRootNode"
    },
    {
      "children": [
        4,
        5,
        6,
        7,
        8
      ],
      "name": "grass_tile_0"
    },
    {
      "mesh": 0,
      "name": "Object_4"
    },
    {
      "mesh": 1,
      "name": "Object_5"
    },
    {
      "mesh": 2,
      "name": "Object_6"
    },
    {
      "mesh": 3,
      "name": "Object_7"
    },
    {
      "mesh": 4,
      "name": "Object_8"
    }
  ],
  "scene": 0,
  "scenes": [
    {
      "name": "Sketchfab_Scene",
      "nodes": [
        0
      ]
    }
  ]
}
